<svg xmlns="http://www.w3.org/2000/svg" viewBox="0 16.110000610351562 24.31999969482422 33.54999923706055" data-asc="0.9931640625" width="24.31999969482422" height="33.54999923706055"><defs/><g fill="#000000"><g transform="translate(0, 0)"><path d="M24.32 49.66L0 49.66L0 47.51L2.91 47.31Q3.44 47.27 3.70 46.92Q3.96 46.58 3.96 46.22L3.96 19.56Q3.96 19.19 3.70 18.84Q3.44 18.48 2.91 18.46L0 18.26L0 16.11L12.77 16.11L12.77 18.26L10.11 18.46Q9.57 18.48 9.29 18.84Q9.01 19.19 9.01 19.56L9.01 47.22L19.51 47.22Q19.85 47.22 20.21 46.95Q20.58 46.68 20.61 46.36L21.41 40.36L24.32 40.36L24.32 49.66Z"/></g></g></svg>